<svg width="22" height="22" viewBox="0 0 22 22" fill="none" xmlns="http://www.w3.org/2000/svg">
<path d="M18.3605 6.20039L13.7371 1.57695C13.6082 1.44805 13.4342 1.375 13.2516 1.375H4.125C3.74473 1.375 3.4375 1.68223 3.4375 2.0625V19.9375C3.4375 20.3178 3.74473 20.625 4.125 20.625H17.875C18.2553 20.625 18.5625 20.3178 18.5625 19.9375V6.68809C18.5625 6.50547 18.4895 6.3293 18.3605 6.20039ZM16.977 7.00391H12.9336V2.96055L16.977 7.00391ZM17.0156 19.0781H4.98438V2.92188H11.4727V7.5625C11.4727 7.80182 11.5677 8.03133 11.7369 8.20055C11.9062 8.36978 12.1357 8.46484 12.375 8.46484H17.0156V19.0781ZM10.8281 13.2773H6.875C6.78047 13.2773 6.70312 13.3547 6.70312 13.4492V14.4805C6.70312 14.575 6.78047 14.6523 6.875 14.6523H10.8281C10.9227 14.6523 11 14.575 11 14.4805V13.4492C11 13.3547 10.9227 13.2773 10.8281 13.2773ZM6.70312 10.5273V11.5586C6.70312 11.6531 6.78047 11.7305 6.875 11.7305H15.125C15.2195 11.7305 15.2969 11.6531 15.2969 11.5586V10.5273C15.2969 10.4328 15.2195 10.3555 15.125 10.3555H6.875C6.78047 10.3555 6.70312 10.4328 6.70312 10.5273Z" fill="#344FA1"/>
</svg>
