<svg width="21" height="21" viewBox="0 0 21 21" fill="none" xmlns="http://www.w3.org/2000/svg">
<path d="M7.44615 17.5H7.37615C5.96596 17.4876 4.57617 17.1618 3.3074 16.5462C3.07401 16.4366 2.88185 16.2551 2.75904 16.0284C2.63623 15.8017 2.58922 15.5416 2.6249 15.2862C2.6637 15.0291 2.78274 14.7908 2.96501 14.6054C3.14729 14.42 3.3835 14.2969 3.6399 14.2537C4.42618 14.1488 5.1826 13.8838 5.8624 13.475C4.68216 12.5522 3.77355 11.3273 3.23286 9.93016C2.69217 8.53299 2.53954 7.01557 2.79115 5.53871C2.82526 5.30478 2.92587 5.08558 3.08099 4.90718C3.23611 4.72879 3.43922 4.59872 3.66615 4.53246C3.88692 4.46312 4.1232 4.46016 4.34564 4.52394C4.56809 4.58771 4.7669 4.71542 4.9174 4.89121C5.4284 5.56127 6.07055 6.1202 6.80469 6.5339C7.53882 6.9476 8.34955 7.20741 9.1874 7.29746C9.22742 6.26658 9.67043 5.29258 10.4211 4.58496C10.796 4.22601 11.2385 3.94525 11.723 3.75905C12.2074 3.57285 12.7241 3.48492 13.2429 3.5004C13.7616 3.51587 14.2721 3.63443 14.7446 3.84918C15.2171 4.06392 15.6421 4.37056 15.9949 4.75121C16.0868 4.83247 16.201 4.88425 16.3227 4.89985C16.4444 4.91545 16.568 4.89415 16.6774 4.83871C16.886 4.74031 17.1183 4.70327 17.3472 4.73191C17.5761 4.76055 17.7921 4.85368 17.9701 5.00045C18.148 5.14721 18.2806 5.34156 18.3523 5.56081C18.4239 5.78005 18.4318 6.01516 18.3749 6.23871C18.1731 7.07006 17.7907 7.84678 17.2549 8.51371C17.1368 11.0029 16.0394 13.3444 14.202 15.0277C12.3645 16.7111 9.9361 17.5998 7.44615 17.5ZM7.44615 15.75H7.51615C8.53348 15.7849 9.54764 15.6176 10.4998 15.2577C11.452 14.8978 12.3233 14.3525 13.0632 13.6534C13.803 12.9542 14.3967 12.1151 14.8098 11.1848C15.223 10.2545 15.4473 9.25139 15.4699 8.23371C15.4843 7.9548 15.5994 7.69058 15.7936 7.48996C16.0071 7.2198 16.1891 6.92624 16.3361 6.61496C16.0209 6.61556 15.7091 6.54962 15.4211 6.42146C15.1332 6.29329 14.8755 6.10579 14.6649 5.87121C14.4624 5.67044 14.2219 5.51209 13.9575 5.40541C13.6931 5.29874 13.41 5.24589 13.1249 5.24996C12.8369 5.24251 12.5503 5.29201 12.2816 5.39562C12.0128 5.49923 11.7671 5.6549 11.5586 5.85371C11.2774 6.12058 11.0712 6.45664 10.9606 6.82825C10.8501 7.19986 10.839 7.59399 10.9286 7.97121L11.1561 8.96871L10.1324 9.03871C9.08335 9.12425 8.02825 8.98075 7.04016 8.61815C6.05207 8.25554 5.1546 7.6825 4.4099 6.93871C4.37796 8.09055 4.6661 9.22869 5.24228 10.2266C5.81846 11.2245 6.66011 12.043 7.67365 12.5912L8.5049 13.0637L7.95365 13.8512C7.3575 14.633 6.54068 15.2182 5.60865 15.5312C6.20655 15.6811 6.82102 15.7546 7.4374 15.75H7.44615Z" fill="#344FA1"/>
</svg>
