<svg width="22" height="22" viewBox="0 0 22 22" fill="none" xmlns="http://www.w3.org/2000/svg">
<path d="M11.9163 20.1666H8.24967C8.00656 20.1666 7.7734 20.07 7.60149 19.8981C7.42959 19.7262 7.33301 19.4931 7.33301 19.25V13.5666H5.49967C5.25656 13.5666 5.0234 13.47 4.85149 13.2981C4.67959 13.1262 4.58301 12.8931 4.58301 12.65V9.34996C4.58301 9.10684 4.67959 8.87369 4.85149 8.70178C5.0234 8.52987 5.25656 8.43329 5.49967 8.43329H7.33301V6.87496C7.39726 5.47828 8.01191 4.16386 9.04257 3.2191C10.0732 2.27433 11.436 1.77608 12.833 1.83329H15.583C15.8261 1.83329 16.0593 1.92987 16.2312 2.10178C16.4031 2.27369 16.4997 2.50684 16.4997 2.74996V6.04996C16.4997 6.29307 16.4031 6.52623 16.2312 6.69814C16.0593 6.87005 15.8261 6.96662 15.583 6.96662H12.833V8.43329H15.583C15.7245 8.43222 15.8644 8.46394 15.9916 8.52596C16.1189 8.58799 16.23 8.67863 16.3163 8.79079C16.4017 8.90464 16.4594 9.0368 16.4849 9.17681C16.5103 9.31682 16.5029 9.46084 16.463 9.59746L15.5463 12.8975C15.4909 13.0957 15.3703 13.2696 15.204 13.391C15.0377 13.5124 14.8354 13.5742 14.6297 13.5666H12.833V19.25C12.833 19.4931 12.7364 19.7262 12.5645 19.8981C12.3926 20.07 12.1595 20.1666 11.9163 20.1666ZM9.16634 18.3333H10.9997V12.65C10.9997 12.4068 11.0963 12.1737 11.2682 12.0018C11.4401 11.8299 11.6732 11.7333 11.9163 11.7333H13.9697L14.373 10.2666H11.9163C11.6732 10.2666 11.4401 10.17 11.2682 9.99814C11.0963 9.82623 10.9997 9.59307 10.9997 9.34996V6.87496C11.0232 6.40479 11.2267 5.96169 11.568 5.63746C11.9093 5.31322 12.3623 5.1327 12.833 5.13329H14.6663V3.66662H12.833C11.9226 3.61116 11.027 3.9169 10.3406 4.51753C9.65414 5.11816 9.23222 5.96523 9.16634 6.87496V9.34996C9.16634 9.59307 9.06976 9.82623 8.89786 9.99814C8.72595 10.17 8.49279 10.2666 8.24967 10.2666H6.41634V11.7333H8.24967C8.49279 11.7333 8.72595 11.8299 8.89786 12.0018C9.06976 12.1737 9.16634 12.4068 9.16634 12.65V18.3333Z" fill="#344FA1"/>
</svg>
