<svg width="19" height="16" viewBox="0 0 19 16" fill="none" xmlns="http://www.w3.org/2000/svg">
<g clip-path="url(#clip0)">
<path d="M16.8667 1H1.53333C0.686806 1 0 1.67188 0 2.5V13.5C0 14.3281 0.686806 15 1.53333 15H16.8667C17.7132 15 18.4 14.3281 18.4 13.5V2.5C18.4 1.67188 17.7132 1 16.8667 1ZM16.8667 13.5H1.53333V2.5H16.8667V13.5ZM6.64444 8C7.77208 8 8.68889 7.10313 8.68889 6C8.68889 4.89687 7.77208 4 6.64444 4C5.51681 4 4.6 4.89687 4.6 6C4.6 7.10313 5.51681 8 6.64444 8ZM3.78222 12H9.50667C9.90278 12 10.2222 11.7312 10.2222 11.4V10.8C10.2222 9.80625 9.2607 9 8.07556 9C7.73056 9 7.47819 9.25 6.64444 9.25C5.78514 9.25 5.5775 9 5.21333 9C4.02819 9 3.06667 9.80625 3.06667 10.8V11.4C3.06667 11.7312 3.38611 12 3.78222 12ZM11.5 10H15.0778C15.2183 10 15.3333 9.8875 15.3333 9.75V9.25C15.3333 9.1125 15.2183 9 15.0778 9H11.5C11.3594 9 11.2444 9.1125 11.2444 9.25V9.75C11.2444 9.8875 11.3594 10 11.5 10ZM11.5 8H15.0778C15.2183 8 15.3333 7.8875 15.3333 7.75V7.25C15.3333 7.1125 15.2183 7 15.0778 7H11.5C11.3594 7 11.2444 7.1125 11.2444 7.25V7.75C11.2444 7.8875 11.3594 8 11.5 8ZM11.5 6H15.0778C15.2183 6 15.3333 5.8875 15.3333 5.75V5.25C15.3333 5.1125 15.2183 5 15.0778 5H11.5C11.3594 5 11.2444 5.1125 11.2444 5.25V5.75C11.2444 5.8875 11.3594 6 11.5 6Z" fill="#344FA1"/>
</g>
<defs>
<clipPath id="clip0">
<rect width="18.4" height="16" fill="white"/>
</clipPath>
</defs>
</svg>
