<svg width="18" height="14" viewBox="0 0 18 14" fill="none" xmlns="http://www.w3.org/2000/svg">
<g clip-path="url(#clip0)">
<path d="M17.1955 4.235C12.3971 -0.24582 4.93429 -0.24418 0.137831 4.235C-0.0425439 4.40344 -0.0460647 4.68863 0.128352 4.86336L1.05569 5.79223C1.22198 5.95902 1.48956 5.96258 1.66235 5.80262C5.61435 2.14731 11.7184 2.14648 15.6712 5.80262C15.844 5.96258 16.1116 5.95875 16.2779 5.79223L17.2052 4.86336C17.3794 4.68863 17.3758 4.40344 17.1955 4.235ZM8.66664 9.625C7.70925 9.625 6.93331 10.4084 6.93331 11.375C6.93331 12.3416 7.70925 13.125 8.66664 13.125C9.62404 13.125 10.4 12.3416 10.4 11.375C10.4 10.4084 9.62404 9.625 8.66664 9.625ZM14.1556 7.33934C11.034 4.55219 6.29577 4.5552 3.17766 7.33934C2.99079 7.50613 2.98483 7.7957 3.16223 7.97234L4.09498 8.90176C4.25748 9.06363 4.5191 9.07457 4.69216 8.92363C6.96581 6.9393 10.3726 6.94367 12.6409 8.92363C12.8139 9.07457 13.0755 9.06391 13.238 8.90176L14.1708 7.97234C14.3485 7.7957 14.3422 7.50586 14.1556 7.33934Z" fill="#344FA1"/>
</g>
<defs>
<clipPath id="clip0">
<rect width="17.3333" height="14" fill="white"/>
</clipPath>
</defs>
</svg>
