<svg width="21" height="21" viewBox="0 0 21 21" fill="none" xmlns="http://www.w3.org/2000/svg">
<path d="M10.5 0.875C8.59636 0.875 6.73546 1.4395 5.15264 2.4971C3.56982 3.55471 2.33616 5.05793 1.60766 6.81667C0.87917 8.57541 0.688563 10.5107 1.05995 12.3777C1.43133 14.2448 2.34802 15.9598 3.6941 17.3059C5.04018 18.652 6.75519 19.5687 8.62226 19.9401C10.4893 20.3114 12.4246 20.1208 14.1833 19.3923C15.9421 18.6638 17.4453 17.4302 18.5029 15.8474C19.5605 14.2645 20.125 12.4036 20.125 10.5C20.125 7.94729 19.1109 5.49913 17.3059 3.6941C15.5009 1.88906 13.0527 0.875 10.5 0.875ZM10.5 18.375C8.94248 18.375 7.41993 17.9131 6.12489 17.0478C4.82985 16.1825 3.82049 14.9526 3.22445 13.5136C2.62841 12.0747 2.47246 10.4913 2.77632 8.96366C3.08018 7.43606 3.8302 6.03287 4.93154 4.93153C6.03288 3.83019 7.43607 3.08017 8.96367 2.77632C10.4913 2.47246 12.0747 2.62841 13.5136 3.22445C14.9526 3.82049 16.1825 4.82985 17.0478 6.12488C17.9131 7.41992 18.375 8.94247 18.375 10.5C18.375 12.5886 17.5453 14.5916 16.0685 16.0685C14.5916 17.5453 12.5886 18.375 10.5 18.375ZM12.25 6.125V5.25C12.25 5.01793 12.1578 4.79538 11.9937 4.63128C11.8296 4.46719 11.6071 4.375 11.375 4.375C11.1429 4.375 10.9204 4.46719 10.7563 4.63128C10.5922 4.79538 10.5 5.01793 10.5 5.25V6.125H9.625V5.25C9.625 5.01793 9.53282 4.79538 9.36872 4.63128C9.20463 4.46719 8.98207 4.375 8.75 4.375C8.51794 4.375 8.29538 4.46719 8.13129 4.63128C7.96719 4.79538 7.875 5.01793 7.875 5.25V6.125H7C6.76794 6.125 6.54538 6.21719 6.38129 6.38128C6.21719 6.54537 6.125 6.76793 6.125 7C6.125 7.23206 6.21719 7.45462 6.38129 7.61872C6.54538 7.78281 6.76794 7.875 7 7.875H7.875V13.125H7C6.76794 13.125 6.54538 13.2172 6.38129 13.3813C6.21719 13.5454 6.125 13.7679 6.125 14C6.125 14.2321 6.21719 14.4546 6.38129 14.6187C6.54538 14.7828 6.76794 14.875 7 14.875H7.875V15.75C7.875 15.9821 7.96719 16.2046 8.13129 16.3687C8.29538 16.5328 8.51794 16.625 8.75 16.625C8.98207 16.625 9.20463 16.5328 9.36872 16.3687C9.53282 16.2046 9.625 15.9821 9.625 15.75V14.875H10.5V15.75C10.5 15.9821 10.5922 16.2046 10.7563 16.3687C10.9204 16.5328 11.1429 16.625 11.375 16.625C11.6071 16.625 11.8296 16.5328 11.9937 16.3687C12.1578 16.2046 12.25 15.9821 12.25 15.75V14.875C12.9462 14.875 13.6139 14.5984 14.1062 14.1062C14.5984 13.6139 14.875 12.9462 14.875 12.25C14.8735 11.6036 14.6336 10.9805 14.2013 10.5C14.6336 10.0195 14.8735 9.39639 14.875 8.75C14.875 8.05381 14.5984 7.38613 14.1062 6.89384C13.6139 6.40156 12.9462 6.125 12.25 6.125ZM12.25 13.125H9.625V11.375H12.25C12.4821 11.375 12.7046 11.4672 12.8687 11.6313C13.0328 11.7954 13.125 12.0179 13.125 12.25C13.125 12.4821 13.0328 12.7046 12.8687 12.8687C12.7046 13.0328 12.4821 13.125 12.25 13.125ZM12.25 9.625H9.625V7.875H12.25C12.4821 7.875 12.7046 7.96719 12.8687 8.13128C13.0328 8.29537 13.125 8.51793 13.125 8.75C13.125 8.98206 13.0328 9.20462 12.8687 9.36872C12.7046 9.53281 12.4821 9.625 12.25 9.625Z" fill="#344FA1"/>
</svg>
