<svg width="20" height="27" viewBox="0 0 20 27" fill="none" xmlns="http://www.w3.org/2000/svg">
<path d="M9.89344 21.2895C9.95163 21.3151 9.99041 21.3664 10.0098 21.4433C10.0292 21.5201 10.0195 21.597 9.98072 21.6739L7.5662 24.8647C7.17832 25.3773 6.73227 25.7874 6.22803 26.0949C5.72379 26.4025 5.20986 26.5819 4.68623 26.6331C4.1626 26.6844 3.63897 26.6331 3.11534 26.4793C2.59171 26.3256 2.11656 26.0052 1.6899 25.5183C1.16627 24.9801 0.759 24.3265 0.468094 23.5576C0.177188 22.7888 0.0220383 22.0199 0.0026446 21.251C-0.0167491 20.4822 0.0705226 19.7005 0.26446 18.906C0.458397 18.1115 0.78809 17.4195 1.25354 16.83L5.00623 11.8708C5.60743 11.0763 6.3056 10.4869 7.10075 10.1024C7.89589 9.71801 8.71043 9.61549 9.54436 9.79489C10.2813 9.94867 10.8631 10.2306 11.2898 10.6406C11.7165 11.0507 12.0558 11.5248 12.308 12.0631C12.3468 12.1912 12.3419 12.2873 12.2934 12.3514C12.2449 12.4155 12.1916 12.4731 12.1334 12.5244C12.0752 12.5756 12.0074 12.6525 11.9298 12.755L11.7262 13.0241C11.5322 13.3061 11.2995 13.447 11.028 13.447C10.7565 13.447 10.5092 13.2997 10.2862 13.0049C10.0631 12.7102 9.81587 12.4859 9.54436 12.3322C9.27285 12.1784 8.97224 12.1143 8.64255 12.1399C8.31286 12.1656 8.02195 12.2296 7.76983 12.3322C7.51771 12.4347 7.2559 12.6653 6.98439 13.0241L2.67898 18.7138C2.42686 19.0469 2.24262 19.4314 2.12626 19.8671C2.0099 20.3028 1.97111 20.7385 2.0099 21.1742C2.04868 21.6098 2.14565 22.0455 2.3008 22.4812C2.45595 22.9169 2.70807 23.2629 3.05716 23.5192C3.542 23.9549 4.06563 24.1087 4.62805 23.9805C5.19047 23.8524 5.66561 23.5448 6.05349 23.0579L7.91528 20.6359C7.95407 20.5591 8.01225 20.5462 8.08983 20.5975C8.67164 20.9307 9.27285 21.1613 9.89344 21.2895ZM17.9806 1.8371C18.5043 2.37531 18.9115 3.01603 19.2024 3.75927C19.4933 4.50251 19.6582 5.27138 19.697 6.06588C19.7358 6.86038 19.6485 7.65487 19.4352 8.44937C19.2218 9.24387 18.8824 9.93585 18.417 10.5253L14.6643 15.4845C14.0631 16.279 13.3649 16.8557 12.5698 17.2145C11.7746 17.5733 10.9504 17.6758 10.0971 17.522C9.36012 17.3939 8.788 17.112 8.38073 16.6763C7.97347 16.2406 7.63408 15.7664 7.36256 15.2539C7.32378 15.1513 7.33347 15.0616 7.39165 14.9848L7.91528 14.2928C8.12862 14.0365 8.37104 13.9083 8.64255 13.9083C8.91406 13.9083 9.14678 14.0365 9.34072 14.2928C9.57345 14.6003 9.83526 14.831 10.1262 14.9848C10.4171 15.1385 10.7177 15.2154 11.028 15.2154C11.3383 15.2154 11.6389 15.1385 11.9298 14.9848C12.2207 14.831 12.4728 14.6003 12.6861 14.2928L16.9915 8.64159C17.2437 8.30841 17.4279 7.91116 17.5443 7.44984C17.6606 6.98852 17.6994 6.54001 17.6606 6.10432C17.6218 5.66863 17.5152 5.24575 17.3406 4.83569C17.1661 4.42563 16.914 4.07963 16.5843 3.79772C16.1188 3.38765 15.6049 3.23388 15.0425 3.33639C14.4801 3.43891 13.9952 3.75927 13.5879 4.29748L11.7552 6.71942C11.6971 6.7963 11.6389 6.80912 11.5807 6.75786C11.0377 6.45031 10.4365 6.20684 9.77708 6.02744C9.69951 6.02744 9.66072 5.97618 9.66072 5.87366C9.66072 5.77115 9.67042 5.70707 9.68981 5.68144L12.1043 2.49064C12.4922 1.97806 12.9383 1.568 13.4425 1.26045C13.9467 0.952902 14.451 0.760684 14.9552 0.683797C15.4594 0.606911 15.9831 0.670983 16.5261 0.876015C17.0691 1.08105 17.554 1.40141 17.9806 1.8371Z" fill="#F1F3F9"/>
</svg>
