<svg width="249" height="97" viewBox="0 0 249 97" fill="none" xmlns="http://www.w3.org/2000/svg">
<path d="M8.88 52C6.384 52 4.608 51.496 3.552 50.488C2.544 49.432 2.04 47.656 2.04 45.16V8.44C2.04 5.944 2.544 4.192 3.552 3.184C4.608 2.128 6.384 1.6 8.88 1.6H22.92C23.688 1.6 24.168 1.744 24.36 2.032C24.6 2.272 24.72 2.776 24.72 3.544V5.776H11.184C9.696 5.776 8.76 6.088 8.376 6.712C7.992 7.336 7.8 8.392 7.8 9.88V43.72C7.8 45.208 7.992 46.264 8.376 46.888C8.76 47.512 9.696 47.824 11.184 47.824H16.944C18.432 47.824 19.368 47.512 19.752 46.888C20.136 46.264 20.328 45.208 20.328 43.72V27.952H14.136V25.72C14.136 24.952 14.256 24.448 14.496 24.208C14.784 23.92 15.312 23.776 16.08 23.776H26.088V45.16C26.088 47.656 25.56 49.432 24.504 50.488C23.448 51.496 21.672 52 19.176 52H8.88ZM41.3424 27.952V47.824H55.0944V50.056C55.0944 50.824 54.9504 51.352 54.6624 51.64C54.4224 51.88 53.9184 52 53.1504 52H35.5824V3.544C35.5824 2.776 35.7024 2.272 35.9424 2.032C36.2304 1.744 36.7584 1.6 37.5264 1.6H55.0944V3.832C55.0944 4.6 54.9744 5.128 54.7344 5.416C54.5424 5.656 54.0624 5.776 53.2944 5.776H41.3424V23.776H52.9344V26.008C52.9344 26.776 52.8144 27.304 52.5744 27.592C52.3824 27.832 51.9024 27.952 51.1344 27.952H41.3424ZM87.0388 1.6V3.832C87.0388 4.6 86.8948 5.128 86.6068 5.416C86.3668 5.656 85.8628 5.776 85.0948 5.776H76.4548V50.056C76.4548 50.824 76.3108 51.352 76.0228 51.64C75.7828 51.88 75.2788 52 74.5108 52H70.6948V5.776H60.2548V3.544C60.2548 2.776 60.3748 2.272 60.6148 2.032C60.9028 1.744 61.4308 1.6 62.1988 1.6H87.0388Z" fill="#8566FF"/>
<path d="M2.648 83.984V91.352C2.648 91.608 2.6 91.784 2.504 91.88C2.424 91.96 2.256 92 2 92H0.728V77.48C0.728 76.648 0.896 76.064 1.232 75.728C1.584 75.376 2.176 75.2 3.008 75.2H6.464C7.296 75.2 7.88 75.376 8.216 75.728C8.568 76.064 8.744 76.648 8.744 77.48V91.352C8.744 91.608 8.696 91.784 8.6 91.88C8.52 91.96 8.352 92 8.096 92H6.824V77.96C6.824 77.496 6.76 77.16 6.632 76.952C6.52 76.744 6.256 76.624 5.84 76.592H3.632C3.2 76.624 2.928 76.744 2.816 76.952C2.704 77.16 2.648 77.496 2.648 77.96V82.592H5.864V83.336C5.864 83.592 5.824 83.768 5.744 83.864C5.68 83.944 5.52 83.984 5.264 83.984H2.648ZM18.773 91.352C18.773 91.608 18.725 91.784 18.629 91.88C18.549 91.96 18.381 92 18.125 92H16.853V77.192C16.853 76.536 17.013 76.072 17.333 75.8C17.653 75.528 18.133 75.328 18.773 75.2V91.352ZM23.9722 89.24C23.9722 89.736 24.0362 90.088 24.1642 90.296C24.2922 90.504 24.6042 90.608 25.1002 90.608H26.4202C26.9162 90.608 27.2282 90.504 27.3562 90.296C27.4842 90.088 27.5482 89.736 27.5482 89.24V77.96C27.5482 77.464 27.4842 77.112 27.3562 76.904C27.2282 76.696 26.9162 76.592 26.4202 76.592H25.1002C24.6042 76.592 24.2922 76.696 24.1642 76.904C24.0362 77.112 23.9722 77.464 23.9722 77.96V89.24ZM22.1722 77.48C22.1722 76.648 22.3402 76.064 22.6762 75.728C23.0282 75.376 23.6202 75.2 24.4522 75.2H27.0682C27.9002 75.2 28.4842 75.376 28.8202 75.728C29.1722 76.064 29.3482 76.648 29.3482 77.48V89.72C29.3482 90.552 29.1722 91.144 28.8202 91.496C28.4842 91.832 27.9002 92 27.0682 92H24.4522C23.6202 92 23.0282 91.832 22.6762 91.496C22.3402 91.144 22.1722 90.552 22.1722 89.72V77.48ZM34.5191 89.24C34.5191 89.736 34.5831 90.088 34.7111 90.296C34.8391 90.504 35.1511 90.608 35.6471 90.608H36.9671C37.4631 90.608 37.7751 90.504 37.9031 90.296C38.0311 90.088 38.0951 89.736 38.0951 89.24V77.96C38.0951 77.464 38.0311 77.112 37.9031 76.904C37.7751 76.696 37.4631 76.592 36.9671 76.592H35.6471C35.1511 76.592 34.8391 76.696 34.7111 76.904C34.5831 77.112 34.5191 77.464 34.5191 77.96V89.24ZM32.7191 77.48C32.7191 76.648 32.8871 76.064 33.2231 75.728C33.5751 75.376 34.1671 75.2 34.9991 75.2H37.6151C38.4471 75.2 39.0311 75.376 39.3671 75.728C39.7191 76.064 39.8951 76.648 39.8951 77.48V89.72C39.8951 90.552 39.7191 91.144 39.3671 91.496C39.0311 91.832 38.4471 92 37.6151 92H34.9991C34.1671 92 33.5751 91.832 33.2231 91.496C32.8871 91.144 32.7191 90.552 32.7191 89.72V77.48ZM58.6574 75.2L50.7854 91.352C50.6574 91.608 50.5294 91.784 50.4014 91.88C50.2734 91.96 50.0814 92 49.8254 92H48.5534L56.4254 75.848C56.5534 75.592 56.6814 75.424 56.8094 75.344C56.9374 75.248 57.1294 75.2 57.3854 75.2H58.6574ZM49.5614 82.16C49.1454 82.16 48.8014 82.136 48.5294 82.088C48.2734 82.024 48.0654 81.92 47.9054 81.776C47.7614 81.616 47.6574 81.408 47.5934 81.152C47.5454 80.88 47.5214 80.536 47.5214 80.12V77.24C47.5214 76.824 47.5454 76.488 47.5934 76.232C47.6574 75.96 47.7614 75.752 47.9054 75.608C48.0654 75.448 48.2734 75.344 48.5294 75.296C48.8014 75.232 49.1454 75.2 49.5614 75.2H50.6174C51.0334 75.2 51.3694 75.232 51.6254 75.296C51.8974 75.344 52.1054 75.448 52.2494 75.608C52.4094 75.752 52.5134 75.96 52.5614 76.232C52.6254 76.488 52.6574 76.824 52.6574 77.24V80.12C52.6574 80.536 52.6254 80.88 52.5614 81.152C52.5134 81.408 52.4094 81.616 52.2494 81.776C52.1054 81.92 51.8974 82.024 51.6254 82.088C51.3694 82.136 51.0334 82.16 50.6174 82.16H49.5614ZM49.0814 79.76C49.0814 80.256 49.1534 80.568 49.2974 80.696C49.4414 80.824 49.7054 80.888 50.0894 80.888C50.4894 80.888 50.7534 80.824 50.8814 80.696C51.0254 80.568 51.0974 80.256 51.0974 79.76V77.6C51.0974 77.104 51.0254 76.792 50.8814 76.664C50.7374 76.536 50.4734 76.472 50.0894 76.472C49.6894 76.472 49.4174 76.536 49.2734 76.664C49.1454 76.792 49.0814 77.104 49.0814 77.6V79.76ZM57.0974 92C56.6814 92 56.3374 91.976 56.0654 91.928C55.8094 91.864 55.6014 91.76 55.4414 91.616C55.2974 91.456 55.1934 91.248 55.1294 90.992C55.0814 90.72 55.0574 90.376 55.0574 89.96V87.08C55.0574 86.664 55.0814 86.328 55.1294 86.072C55.1934 85.8 55.2974 85.592 55.4414 85.448C55.6014 85.288 55.8094 85.184 56.0654 85.136C56.3374 85.072 56.6814 85.04 57.0974 85.04H58.1534C58.5694 85.04 58.9054 85.072 59.1614 85.136C59.4334 85.184 59.6414 85.288 59.7854 85.448C59.9454 85.592 60.0494 85.8 60.0974 86.072C60.1614 86.328 60.1934 86.664 60.1934 87.08V89.96C60.1934 90.376 60.1614 90.72 60.0974 90.992C60.0494 91.248 59.9454 91.456 59.7854 91.616C59.6414 91.76 59.4334 91.864 59.1614 91.928C58.9054 91.976 58.5694 92 58.1534 92H57.0974ZM56.6174 89.6C56.6174 90.096 56.6894 90.408 56.8334 90.536C56.9774 90.664 57.2414 90.728 57.6254 90.728C58.0254 90.728 58.2894 90.664 58.4174 90.536C58.5614 90.408 58.6334 90.096 58.6334 89.6V87.44C58.6334 86.944 58.5614 86.632 58.4174 86.504C58.2734 86.376 58.0094 86.312 57.6254 86.312C57.2254 86.312 56.9534 86.376 56.8094 86.504C56.6814 86.632 56.6174 86.944 56.6174 87.44V89.6ZM72.8456 75.2C73.1016 75.2 73.2616 75.248 73.3256 75.344C73.4056 75.424 73.4456 75.592 73.4456 75.848V76.592H70.7336C70.4936 76.592 70.2936 76.608 70.1336 76.64C69.9896 76.672 69.8776 76.736 69.7976 76.832C69.7176 76.928 69.6616 77.064 69.6296 77.24C69.6136 77.416 69.6056 77.656 69.6056 77.96V79.808H71.9576C72.2136 79.808 72.3736 79.856 72.4376 79.952C72.5176 80.032 72.5576 80.2 72.5576 80.456V81.2H69.6056V91.352C69.6056 91.608 69.5576 91.784 69.4616 91.88C69.3816 91.96 69.2136 92 68.9576 92H67.6856V77.48C67.6856 76.648 67.8536 76.064 68.1896 75.728C68.5416 75.376 69.1336 75.2 69.9656 75.2H72.8456ZM76.8003 81.2V91.352C76.8003 91.608 76.7523 91.784 76.6563 91.88C76.5763 91.96 76.4083 92 76.1523 92H74.8803V80.456C74.8803 80.2 74.9203 80.032 75.0003 79.952C75.0963 79.856 75.2723 79.808 75.5283 79.808H76.8003V81.2C77.0083 80.656 77.2243 80.288 77.4483 80.096C77.6723 79.904 78.0163 79.808 78.4803 79.808H79.4163C79.6723 79.808 79.8323 79.856 79.8963 79.952C79.9763 80.032 80.0163 80.2 80.0163 80.456V81.2H76.8003ZM88.766 90.608V91.352C88.766 91.608 88.726 91.784 88.646 91.88C88.582 91.96 88.422 92 88.166 92H84.542C83.71 92 83.118 91.832 82.766 91.496C82.43 91.144 82.262 90.552 82.262 89.72V82.088C82.262 81.256 82.43 80.672 82.766 80.336C83.118 79.984 83.71 79.808 84.542 79.808H87.182C88.014 79.808 88.598 79.984 88.934 80.336C89.286 80.672 89.462 81.256 89.462 82.088V84.776C89.462 85.608 89.286 86.2 88.934 86.552C88.598 86.888 88.014 87.056 87.182 87.056H85.742C85.486 87.056 85.318 87.016 85.238 86.936C85.174 86.84 85.142 86.664 85.142 86.408V85.664H86.534C87.03 85.664 87.342 85.56 87.47 85.352C87.598 85.144 87.662 84.792 87.662 84.296V82.448C87.662 81.952 87.582 81.624 87.422 81.464C87.262 81.288 86.934 81.2 86.438 81.2H85.406C84.878 81.2 84.542 81.296 84.398 81.488C84.254 81.664 84.182 82.024 84.182 82.568V89.24C84.182 89.736 84.246 90.088 84.374 90.296C84.502 90.504 84.814 90.608 85.31 90.608H88.766ZM98.6801 90.608V91.352C98.6801 91.608 98.6401 91.784 98.5601 91.88C98.4961 91.96 98.3361 92 98.0801 92H94.4561C93.6241 92 93.0321 91.832 92.6801 91.496C92.3441 91.144 92.1761 90.552 92.1761 89.72V82.088C92.1761 81.256 92.3441 80.672 92.6801 80.336C93.0321 79.984 93.6241 79.808 94.4561 79.808H97.0961C97.9281 79.808 98.5121 79.984 98.8481 80.336C99.2001 80.672 99.3761 81.256 99.3761 82.088V84.776C99.3761 85.608 99.2001 86.2 98.8481 86.552C98.5121 86.888 97.9281 87.056 97.0961 87.056H95.6561C95.4001 87.056 95.2321 87.016 95.1521 86.936C95.0881 86.84 95.0561 86.664 95.0561 86.408V85.664H96.4481C96.9441 85.664 97.2561 85.56 97.3841 85.352C97.5121 85.144 97.5761 84.792 97.5761 84.296V82.448C97.5761 81.952 97.4961 81.624 97.3361 81.464C97.1761 81.288 96.8481 81.2 96.3521 81.2H95.3201C94.7921 81.2 94.4561 81.296 94.3121 81.488C94.1681 81.664 94.0961 82.024 94.0961 82.568V89.24C94.0961 89.736 94.1601 90.088 94.2881 90.296C94.4161 90.504 94.7281 90.608 95.2241 90.608H98.6801ZM112.778 96.824V80.456C112.778 80.2 112.818 80.032 112.898 79.952C112.994 79.856 113.17 79.808 113.426 79.808H114.698V96.176C114.698 96.432 114.65 96.6 114.554 96.68C114.474 96.776 114.306 96.824 114.05 96.824H112.778ZM109.058 92C108.226 92 107.634 91.832 107.282 91.496C106.946 91.144 106.778 90.552 106.778 89.72V82.088C106.778 81.256 106.946 80.672 107.282 80.336C107.634 79.984 108.226 79.808 109.058 79.808H111.338C111.802 79.808 112.13 79.928 112.322 80.168C112.53 80.392 112.682 80.736 112.778 81.2H109.826C109.33 81.2 109.018 81.304 108.89 81.512C108.762 81.72 108.698 82.072 108.698 82.568V89.24C108.698 89.736 108.762 90.088 108.89 90.296C109.018 90.504 109.33 90.608 109.826 90.608H111.818V91.352C111.818 91.608 111.778 91.784 111.698 91.88C111.634 91.96 111.474 92 111.218 92H109.058ZM119.761 81.2V91.352C119.761 91.608 119.713 91.784 119.617 91.88C119.537 91.96 119.369 92 119.113 92H117.841V80.456C117.841 80.2 117.881 80.032 117.961 79.952C118.057 79.856 118.233 79.808 118.489 79.808H119.761V81.2C119.969 80.656 120.185 80.288 120.409 80.096C120.633 79.904 120.977 79.808 121.441 79.808H122.377C122.633 79.808 122.793 79.856 122.857 79.952C122.937 80.032 122.977 80.2 122.977 80.456V81.2H119.761ZM135.31 79.808C135.566 79.808 135.726 79.856 135.79 79.952C135.87 80.032 135.91 80.2 135.91 80.456V81.2H132.958C132.462 81.2 132.15 81.304 132.022 81.512C131.894 81.72 131.83 82.072 131.83 82.568V89.24C131.83 89.736 131.894 90.088 132.022 90.296C132.15 90.504 132.462 90.608 132.958 90.608H135.91V91.352C135.91 91.608 135.87 91.784 135.79 91.88C135.726 91.96 135.566 92 135.31 92H132.19C131.358 92 130.766 91.832 130.414 91.496C130.078 91.144 129.91 90.552 129.91 89.72V82.088C129.91 81.256 130.078 80.672 130.414 80.336C130.766 79.984 131.358 79.808 132.19 79.808H135.31ZM138.442 82.088C138.442 81.256 138.61 80.672 138.946 80.336C139.298 79.984 139.89 79.808 140.722 79.808H144.082C144.914 79.808 145.498 79.984 145.834 80.336C146.186 80.672 146.362 81.256 146.362 82.088V89.72C146.362 90.552 146.186 91.144 145.834 91.496C145.498 91.832 144.914 92 144.082 92H140.722C139.89 92 139.298 91.832 138.946 91.496C138.61 91.144 138.442 90.552 138.442 89.72V82.088ZM141.49 81.2C140.994 81.2 140.682 81.304 140.554 81.512C140.426 81.72 140.362 82.072 140.362 82.568V89.24C140.362 89.736 140.426 90.088 140.554 90.296C140.682 90.504 140.994 90.608 141.49 90.608H143.314C143.81 90.608 144.122 90.504 144.25 90.296C144.378 90.088 144.442 89.736 144.442 89.24V82.568C144.442 82.072 144.378 81.72 144.25 81.512C144.122 81.304 143.81 81.2 143.314 81.2H141.49ZM157.307 75.2V91.352C157.307 91.608 157.259 91.784 157.163 91.88C157.083 91.96 156.915 92 156.659 92H155.387V75.848C155.387 75.592 155.427 75.424 155.507 75.344C155.603 75.248 155.779 75.2 156.035 75.2H157.307ZM151.667 92C150.835 92 150.243 91.832 149.891 91.496C149.555 91.144 149.387 90.552 149.387 89.72V82.088C149.387 81.256 149.555 80.672 149.891 80.336C150.243 79.984 150.835 79.808 151.667 79.808H153.947C154.411 79.808 154.739 79.928 154.931 80.168C155.139 80.392 155.291 80.736 155.387 81.2H152.435C151.939 81.2 151.627 81.304 151.499 81.512C151.371 81.72 151.307 82.072 151.307 82.568V89.24C151.307 89.736 151.371 90.088 151.499 90.296C151.627 90.504 151.939 90.608 152.435 90.608H154.427V91.352C154.427 91.608 154.387 91.784 154.307 91.88C154.243 91.96 154.083 92 153.827 92H151.667ZM166.883 90.608V91.352C166.883 91.608 166.843 91.784 166.763 91.88C166.699 91.96 166.539 92 166.283 92H162.659C161.827 92 161.235 91.832 160.883 91.496C160.547 91.144 160.379 90.552 160.379 89.72V82.088C160.379 81.256 160.547 80.672 160.883 80.336C161.235 79.984 161.827 79.808 162.659 79.808H165.299C166.131 79.808 166.715 79.984 167.051 80.336C167.403 80.672 167.579 81.256 167.579 82.088V84.776C167.579 85.608 167.403 86.2 167.051 86.552C166.715 86.888 166.131 87.056 165.299 87.056H163.859C163.603 87.056 163.435 87.016 163.355 86.936C163.291 86.84 163.259 86.664 163.259 86.408V85.664H164.651C165.147 85.664 165.459 85.56 165.587 85.352C165.715 85.144 165.779 84.792 165.779 84.296V82.448C165.779 81.952 165.699 81.624 165.539 81.464C165.379 81.288 165.051 81.2 164.555 81.2H163.523C162.995 81.2 162.659 81.296 162.515 81.488C162.371 81.664 162.299 82.024 162.299 82.568V89.24C162.299 89.736 162.363 90.088 162.491 90.296C162.619 90.504 162.931 90.608 163.427 90.608H166.883ZM177.261 92C176.429 92 175.837 91.832 175.485 91.496C175.149 91.144 174.981 90.552 174.981 89.72V82.088C174.981 81.256 175.149 80.672 175.485 80.336C175.837 79.984 176.429 79.808 177.261 79.808H179.541C180.005 79.808 180.333 79.928 180.525 80.168C180.733 80.392 180.885 80.736 180.981 81.2H178.029C177.533 81.2 177.221 81.304 177.093 81.512C176.965 81.72 176.901 82.072 176.901 82.568V89.24C176.901 89.736 176.965 90.088 177.093 90.296C177.221 90.504 177.533 90.608 178.029 90.608H180.021V91.352C180.021 91.608 179.981 91.784 179.901 91.88C179.837 91.96 179.677 92 179.421 92H177.261ZM175.581 96.824C175.325 96.824 175.157 96.776 175.077 96.68C175.013 96.6 174.981 96.432 174.981 96.176V95.432H179.853C180.093 95.432 180.285 95.416 180.429 95.384C180.589 95.352 180.709 95.288 180.789 95.192C180.869 95.096 180.917 94.96 180.933 94.784C180.965 94.608 180.981 94.368 180.981 94.064V80.456C180.981 80.2 181.021 80.032 181.101 79.952C181.197 79.856 181.373 79.808 181.629 79.808H182.901V94.544C182.901 95.376 182.725 95.96 182.373 96.296C182.037 96.648 181.453 96.824 180.621 96.824H175.581ZM192.829 90.608V91.352C192.829 91.608 192.789 91.784 192.709 91.88C192.645 91.96 192.485 92 192.229 92H188.605C187.773 92 187.181 91.832 186.829 91.496C186.493 91.144 186.325 90.552 186.325 89.72V82.088C186.325 81.256 186.493 80.672 186.829 80.336C187.181 79.984 187.773 79.808 188.605 79.808H191.245C192.077 79.808 192.661 79.984 192.997 80.336C193.349 80.672 193.525 81.256 193.525 82.088V84.776C193.525 85.608 193.349 86.2 192.997 86.552C192.661 86.888 192.077 87.056 191.245 87.056H189.805C189.549 87.056 189.381 87.016 189.301 86.936C189.237 86.84 189.205 86.664 189.205 86.408V85.664H190.597C191.093 85.664 191.405 85.56 191.533 85.352C191.661 85.144 191.725 84.792 191.725 84.296V82.448C191.725 81.952 191.645 81.624 191.485 81.464C191.325 81.288 190.997 81.2 190.501 81.2H189.469C188.941 81.2 188.605 81.296 188.461 81.488C188.317 81.664 188.245 82.024 188.245 82.568V89.24C188.245 89.736 188.309 90.088 188.437 90.296C188.565 90.504 188.877 90.608 189.373 90.608H192.829ZM201.927 79.808C202.759 79.808 203.343 79.984 203.679 80.336C204.031 80.672 204.207 81.256 204.207 82.088V91.352C204.207 91.608 204.159 91.784 204.063 91.88C203.983 91.96 203.815 92 203.559 92H202.287V82.568C202.287 82.072 202.223 81.72 202.095 81.512C201.967 81.304 201.655 81.2 201.159 81.2H198.207V91.352C198.207 91.608 198.159 91.784 198.063 91.88C197.983 91.96 197.815 92 197.559 92H196.287V80.456C196.287 80.2 196.327 80.032 196.407 79.952C196.503 79.856 196.679 79.808 196.935 79.808H198.207V81.2C198.303 80.736 198.447 80.392 198.639 80.168C198.847 79.928 199.183 79.808 199.647 79.808H201.927ZM209.222 81.2V91.352C209.222 91.608 209.174 91.784 209.078 91.88C208.998 91.96 208.83 92 208.574 92H207.302V80.456C207.302 80.2 207.342 80.032 207.422 79.952C207.518 79.856 207.694 79.808 207.95 79.808H209.222V81.2C209.43 80.656 209.646 80.288 209.87 80.096C210.094 79.904 210.438 79.808 210.902 79.808H211.838C212.094 79.808 212.254 79.856 212.318 79.952C212.398 80.032 212.438 80.2 212.438 80.456V81.2H209.222ZM220.156 82.568C220.156 82.072 220.092 81.72 219.964 81.512C219.836 81.304 219.524 81.2 219.028 81.2H214.876C214.972 80.736 215.116 80.392 215.308 80.168C215.516 79.928 215.852 79.808 216.316 79.808H219.796C220.628 79.808 221.212 79.984 221.548 80.336C221.9 80.672 222.076 81.256 222.076 82.088V92H220.804C220.548 92 220.372 91.96 220.276 91.88C220.196 91.784 220.156 91.608 220.156 91.352V82.568ZM216.676 92C215.844 92 215.252 91.832 214.9 91.496C214.564 91.144 214.396 90.552 214.396 89.72V87.08C214.396 86.248 214.564 85.664 214.9 85.328C215.252 84.976 215.844 84.8 216.676 84.8H218.716C219.18 84.8 219.508 84.92 219.7 85.16C219.908 85.384 220.06 85.728 220.156 86.192H217.444C216.948 86.192 216.636 86.296 216.508 86.504C216.38 86.712 216.316 87.064 216.316 87.56V89.432C216.316 89.928 216.404 90.248 216.58 90.392C216.772 90.536 217.116 90.608 217.612 90.608H219.196V91.352C219.196 91.608 219.156 91.784 219.076 91.88C219.012 91.96 218.852 92 218.596 92H216.676ZM229.481 79.808C229.737 79.808 229.897 79.856 229.961 79.952C230.041 80.032 230.081 80.2 230.081 80.456V81.2H227.129V89.24C227.129 89.736 227.193 90.088 227.321 90.296C227.449 90.504 227.761 90.608 228.257 90.608H230.345C230.313 91.072 230.217 91.424 230.057 91.664C229.913 91.888 229.609 92 229.145 92H227.489C226.657 92 226.065 91.832 225.713 91.496C225.377 91.144 225.209 90.552 225.209 89.72V77.672C225.209 77.416 225.249 77.248 225.329 77.168C225.425 77.072 225.601 77.024 225.857 77.024H227.129V79.808H229.481ZM232.426 82.088C232.426 81.256 232.594 80.672 232.93 80.336C233.282 79.984 233.874 79.808 234.706 79.808H238.066C238.898 79.808 239.482 79.984 239.818 80.336C240.17 80.672 240.346 81.256 240.346 82.088V89.72C240.346 90.552 240.17 91.144 239.818 91.496C239.482 91.832 238.898 92 238.066 92H234.706C233.874 92 233.282 91.832 232.93 91.496C232.594 91.144 232.426 90.552 232.426 89.72V82.088ZM235.474 81.2C234.978 81.2 234.666 81.304 234.538 81.512C234.41 81.72 234.346 82.072 234.346 82.568V89.24C234.346 89.736 234.41 90.088 234.538 90.296C234.666 90.504 234.978 90.608 235.474 90.608H237.298C237.794 90.608 238.106 90.504 238.234 90.296C238.362 90.088 238.426 89.736 238.426 89.24V82.568C238.426 82.072 238.362 81.72 238.234 81.512C238.106 81.304 237.794 81.2 237.298 81.2H235.474ZM245.339 81.2V91.352C245.339 91.608 245.291 91.784 245.195 91.88C245.115 91.96 244.947 92 244.691 92H243.419V80.456C243.419 80.2 243.459 80.032 243.539 79.952C243.635 79.856 243.811 79.808 244.067 79.808H245.339V81.2C245.547 80.656 245.763 80.288 245.987 80.096C246.211 79.904 246.555 79.808 247.019 79.808H247.955C248.211 79.808 248.371 79.856 248.435 79.952C248.515 80.032 248.555 80.2 248.555 80.456V81.2H245.339Z" fill="#8566FF"/>
<path d="M185.04 7.44C185.04 4.944 185.544 3.192 186.552 2.184C187.608 1.128 189.384 0.599997 191.88 0.599997H202.968C205.464 0.599997 207.216 1.128 208.224 2.184C209.28 3.192 209.808 4.944 209.808 7.44V44.16C209.808 46.656 209.28 48.432 208.224 49.488C207.216 50.496 205.464 51 202.968 51H198.936V51.576C198.936 53.256 199.152 54.36 199.584 54.888C200.016 55.416 200.928 55.68 202.32 55.68H205.416V57.912C205.416 58.68 205.296 59.184 205.056 59.424C204.864 59.712 204.384 59.856 203.616 59.856H200.88C198.816 59.856 197.28 59.328 196.272 58.272C195.264 57.216 194.76 55.464 194.76 53.016V51H191.88C189.384 51 187.608 50.496 186.552 49.488C185.544 48.432 185.04 46.656 185.04 44.16V7.44ZM190.8 42.72C190.8 44.208 190.992 45.264 191.376 45.888C191.76 46.512 192.696 46.824 194.184 46.824H200.664C202.152 46.824 203.088 46.512 203.472 45.888C203.856 45.264 204.048 44.208 204.048 42.72V8.88C204.048 7.392 203.856 6.336 203.472 5.712C203.088 5.088 202.152 4.776 200.664 4.776H194.184C192.696 4.776 191.76 5.088 191.376 5.712C190.992 6.336 190.8 7.392 190.8 8.88V42.72ZM234.603 22.776C236.091 22.776 237.027 22.464 237.411 21.84C237.795 21.216 237.987 20.16 237.987 18.672V8.88C237.987 7.392 237.795 6.336 237.411 5.712C237.027 5.088 236.091 4.776 234.603 4.776H225.819V49.056C225.819 49.824 225.675 50.352 225.387 50.64C225.147 50.88 224.643 51 223.875 51H220.059V2.544C220.059 1.776 220.179 1.272 220.419 1.032C220.707 0.743998 221.235 0.599997 222.003 0.599997H236.907C239.403 0.599997 241.155 1.128 242.163 2.184C243.219 3.192 243.747 4.944 243.747 7.44V20.112C243.747 22.368 243.339 24.024 242.523 25.08C241.707 26.088 240.315 26.688 238.347 26.88L245.619 51H241.947C241.179 51 240.603 50.88 240.219 50.64C239.883 50.352 239.595 49.824 239.355 49.056L232.659 26.952H230.499C229.731 26.952 229.227 26.832 228.987 26.592C228.795 26.304 228.699 25.776 228.699 25.008V22.776H234.603Z" fill="#8566FF"/>
<path d="M112 23.7143H134.714V1H112V23.7143ZM119.571 8.57143H127.143V16.1429H119.571V8.57143ZM142.286 1V23.7143H165V1H142.286ZM157.429 16.1429H149.857V8.57143H157.429V16.1429ZM112 54H134.714V31.2857H112V54ZM119.571 38.8571H127.143V46.4286H119.571V38.8571ZM161.214 31.2857H165V46.4286H153.643V42.6429H149.857V54H142.286V31.2857H153.643V35.0714H161.214V31.2857ZM161.214 50.2143H165V54H161.214V50.2143ZM153.643 50.2143H157.429V54H153.643V50.2143Z" fill="#8566FF"/>
</svg>
